
<svg version="1.0" xmlns="http://www.w3.org/2000/svg"
 viewBox="0 0 324.000000 271.000000"
 preserveAspectRatio="xMidYMid meet">

<g transform="translate(0.000000,271.000000) scale(0.100000,-0.100000)"
fill="currentColor" stroke="none">
<path d="M441 1972 l-195 -177 330 -5 329 -5 2 -543 3 -542 172 -229 173 -229
3 769 2 769 264 0 264 0 124 173 c69 94 128 178 132 185 6 9 -137 12 -701 11
l-708 0 -194 -177z"/>
<path d="M2036 1905 l-179 -245 -233 0 -234 0 0 -712 0 -712 175 234 174 235
3 295 3 295 70 3 71 3 154 -216 155 -215 254 0 c241 0 253 1 239 18 -32 36
-421 597 -421 607 0 6 98 150 219 320 121 171 223 316 227 323 7 9 -45 12
-245 12 l-253 -1 -179 -244z"/>
</g>
</svg>
