<svg version="1.1" id="Layer_1" xmlns="http://www.w3.org/2000/svg" xmlns:xlink="http://www.w3.org/1999/xlink" x="0px" y="0px"
	 width="100%" viewBox="0 0 500 500" enable-background="new 0 0 500 500" xml:space="preserve">
<path fill="none" opacity="1.000000" stroke="none" 
	d="
M281.000000,501.000000 
	C188.666687,501.000000 96.833344,500.975555 5.000191,501.095764 
	C1.576136,501.100220 0.903036,500.423828 0.905301,497.000000 
	C1.013778,333.000092 1.013756,169.000122 0.905337,5.000247 
	C0.903074,1.576949 1.575791,0.903021 4.999876,0.905286 
	C168.999756,1.013775 332.999725,1.013761 496.999634,0.905353 
	C500.422668,0.903091 501.096985,1.575428 501.094727,4.999756 
	C500.986206,168.999634 500.986237,332.999603 501.094604,496.999512 
	C501.096893,500.422272 500.425659,501.102509 497.000244,501.096405 
	C425.167023,500.968781 353.333466,501.000000 281.000000,501.000000 
z"/>
<path fill="#FF7F00" opacity="1.000000" stroke="none" 
	d="
M71.780884,444.426514 
	C72.209869,440.979095 74.369202,439.006378 75.838539,436.720551 
	C90.858528,413.354095 105.946014,390.030914 121.057899,366.723724 
	C133.613571,347.359009 146.312714,328.086884 158.793564,308.674255 
	C174.679337,283.965607 190.416626,259.161469 206.170700,234.368500 
	C206.652985,233.609497 208.591034,233.181244 207.098511,231.666779 
	C206.129425,230.683456 205.397751,231.712097 204.542496,231.800903 
	C201.738770,232.092026 198.892014,231.997757 196.061783,231.999542 
	C181.565155,232.008652 167.068405,231.971970 152.571976,232.024612 
	C149.634460,232.035278 146.719772,231.749786 143.763214,232.841568 
	C141.743362,233.587433 139.270248,233.389191 136.963974,230.981400 
	C172.558334,200.083221 208.102554,169.228592 244.013931,138.055237 
	C238.486633,133.648224 233.064880,129.175797 227.478027,124.920135 
	C223.313446,121.747879 223.276581,120.972343 227.793777,118.638344 
	C252.797714,105.718956 278.906372,95.503067 305.613525,86.734947 
	C323.827911,80.755043 342.441772,76.315102 361.306458,73.126663 
	C378.344727,70.246933 395.647064,70.500336 412.842255,71.180626 
	C420.572266,71.486450 428.248444,73.588005 435.904297,75.101051 
	C438.608124,75.635406 440.390808,76.925377 441.182007,80.364372 
	C443.656952,91.121872 444.623566,101.933739 445.127472,112.940926 
	C446.289764,138.329208 442.339478,162.961411 436.327850,187.496704 
	C429.778442,214.226837 420.462250,239.905914 409.027954,264.875336 
	C405.243958,273.138550 401.431061,281.389069 397.729218,289.689026 
	C396.257782,292.988190 394.586151,292.481537 392.719086,290.201172 
	C389.102722,285.784424 385.402771,281.425598 381.998535,276.848602 
	C378.694214,272.405975 377.788269,272.140869 374.385834,276.137207 
	C361.309814,291.495758 348.362457,306.964508 335.213379,322.259979 
	C325.562256,333.486572 315.632599,344.473206 305.900391,355.630737 
	C298.906219,363.649231 292.032990,371.773193 284.539764,379.647949 
	C284.179260,356.143250 283.305206,332.836029 285.444061,308.031250 
	C279.925751,311.473785 275.476318,314.178680 271.097046,316.992737 
	C238.445251,337.973969 205.768051,358.915985 173.177017,379.991211 
	C144.810471,398.334564 116.562912,416.861847 88.220642,435.242859 
	C83.325493,438.417542 78.220184,441.268127 72.935944,444.489075 
	C72.322533,444.782013 71.985153,444.854401 71.780884,444.426514 
z"/>
<path fill="#FF7F00" opacity="1.000000" stroke="none" 
	d="
M72.474899,444.512512 
	C72.204536,445.025513 72.031639,445.988831 71.247665,445.465363 
	C71.074318,445.349579 71.319748,444.606689 71.643173,444.039429 
	C72.039299,444.056000 72.164589,444.185638 72.474899,444.512512 
z"/>
<path fill="#000000" opacity="1.000000" stroke="none" 
	d="
M287.340881,125.276917 
	C307.968933,117.278107 328.682129,110.643112 349.947144,106.309250 
	C361.569489,103.940582 373.444672,102.256462 385.473816,101.768875 
	C393.706146,101.435188 401.812866,101.047501 410.044800,101.842209 
	C413.733215,102.198296 414.999756,103.440529 415.006714,106.807854 
	C415.042786,124.276665 414.659912,141.597427 411.296661,158.950394 
	C407.083221,180.690216 400.867859,201.766251 393.931549,222.695740 
	C392.426453,227.237167 390.326660,231.581512 388.173065,236.812576 
	C386.099182,232.548553 382.324188,230.779739 380.526489,227.163040 
	C379.486115,225.069916 378.110016,226.221405 377.040161,227.447586 
	C369.693878,235.867386 362.306030,244.251602 355.028198,252.730225 
	C350.450409,258.063324 346.146118,263.632477 341.531860,268.932648 
	C333.269592,278.423065 324.866089,287.790497 316.109741,297.674286 
	C316.109741,282.564484 316.109741,267.987061 316.109741,252.099472 
	C292.376404,267.394043 269.462372,282.160614 245.281952,297.743286 
	C254.125183,275.071716 262.409363,253.833420 270.693512,232.595123 
	C270.257751,232.354767 269.822021,232.114395 269.386261,231.874023 
	C258.460358,236.234085 247.534439,240.594147 235.067291,245.569260 
	C245.300186,229.841690 254.733765,215.342682 264.623322,200.142807 
	C248.756531,199.414734 233.782730,202.208893 218.300140,200.646301 
	C221.095261,198.045654 223.629059,195.425247 226.428116,193.128052 
	C240.637817,181.466125 254.564087,169.479294 268.296204,157.258896 
	C274.658997,151.596558 281.191467,146.114792 287.820862,140.766647 
	C290.742004,138.410065 289.915222,136.647690 287.472931,135.048431 
	C284.677460,133.217911 282.285065,131.044281 280.074860,128.277649 
	C282.518494,127.296707 284.765564,126.394676 287.340881,125.276917 
z"/>
<path fill="#FF7F00" opacity="1.000000" stroke="none" 
	d="
M326.395935,225.775970 
	C309.671570,216.110672 297.064819,203.036697 288.550964,186.087708 
	C284.195038,177.416077 285.194153,172.611282 291.919006,165.518539 
	C305.339966,151.363480 320.038971,139.020096 338.033234,130.962921 
	C349.993683,125.607483 362.310944,121.994484 375.450867,120.829094 
	C380.387726,120.391251 385.293365,120.096825 390.231873,119.994926 
	C393.656311,119.924263 394.929169,121.283592 395.103546,124.976875 
	C396.294373,150.193710 388.893433,173.069016 375.867188,194.167526 
	C367.977905,206.945724 357.550598,217.835815 346.440735,227.929474 
	C342.429260,231.573990 337.537994,229.943298 333.008606,228.511169 
	C330.862396,227.832535 328.820557,226.823853 326.395935,225.775970 
z"/>
<path fill="#000000" opacity="1.000000" stroke="none" 
	d="
M310.953674,177.810211 
	C309.307556,173.765381 309.601929,170.761673 312.695679,167.698837 
	C325.622375,154.901306 340.040405,144.518250 357.518494,138.867798 
	C362.287720,137.325974 367.031830,135.456421 372.850037,136.203827 
	C365.282806,140.832657 357.990387,144.927185 351.352081,150.067123 
	C339.625214,159.147018 328.360931,168.716614 318.063202,179.410889 
	C313.518860,184.130219 313.444000,184.058136 310.953674,177.810211 
z"/>
</svg>