
<svg version="1.0" xmlns="http://www.w3.org/2000/svg"
 viewBox="0 0 500.000000 500.000000"
 preserveAspectRatio="xMidYMid meet">

<g transform="translate(0.000000,500.000000) scale(0.100000,-0.100000)"
fill="currentColor" stroke="none">
<path d="M2890 4303 c-129 -49 -307 -144 -351 -187 -56 -54 -120 -176 -144
-274 l-17 -70 -67 -17 c-67 -16 -127 -52 -103 -62 16 -6 16 -100 -1 -133 -16
-32 -79 -74 -152 -101 -190 -70 -374 -188 -513 -327 -116 -117 -157 -173 -220
-298 -95 -187 -142 -390 -142 -606 0 -266 99 -560 264 -782 221 -297 532 -478
896 -522 133 -16 151 -16 289 0 225 26 430 103 624 234 100 67 262 232 331
336 212 322 272 772 151 1141 -25 79 -107 246 -159 327 -87 137 -262 303 -418
399 -37 22 -113 60 -169 85 -56 24 -108 49 -115 55 -8 6 -11 31 -10 67 2 41
-2 64 -14 82 -20 28 -40 93 -40 128 0 25 36 66 50 57 5 -3 14 -24 20 -46 13
-48 67 -111 114 -133 39 -18 161 -22 215 -6 72 20 141 113 154 205 23 173 19
196 -44 252 -19 18 -27 32 -24 45 4 12 -8 33 -40 66 -64 70 -127 92 -253 91
-54 0 -104 -3 -112 -6z m50 -17 c0 -21 29 -29 95 -27 70 3 165 -32 184 -68 10
-18 8 -21 -21 -25 -92 -14 -118 -15 -118 -7 0 5 -15 15 -34 21 -29 9 -49 7
-127 -14 -89 -24 -169 -65 -169 -86 0 -13 17 -13 25 0 3 5 15 15 26 21 18 9
19 8 10 -9 -6 -11 -8 -22 -4 -25 7 -7 -8 -13 -56 -21 -27 -5 -32 -3 -27 9 4
12 2 13 -12 6 -37 -20 -60 -58 -69 -111 l-10 -55 -20 43 c-22 48 -28 46 -38
-11 -7 -37 -18 -44 -44 -28 -20 13 -41 2 -41 -19 0 -11 -5 -22 -10 -25 -13 -8
-7 24 21 112 27 82 77 147 141 179 l50 25 15 -20 c18 -26 48 -14 57 22 3 13
17 29 31 35 15 7 24 15 22 20 -3 4 10 7 29 8 48 1 86 23 78 46 -3 10 -1 18 5
18 6 0 11 -6 11 -14z m10 -136 c0 -5 -8 -10 -17 -10 -15 0 -16 2 -3 10 19 12
20 12 20 0z m117 -131 c12 -5 34 -26 49 -48 14 -22 37 -47 50 -56 33 -21 30
-42 -8 -65 -39 -24 -67 -25 -113 -6 -35 15 -48 35 -59 89 -9 41 -37 34 -89
-23 -47 -51 -75 -61 -96 -36 -9 11 0 26 46 72 82 83 140 102 220 73z m-282
-165 c10 -10 13 -24 10 -38 -4 -11 -9 -29 -11 -38 -3 -10 -12 -18 -20 -18 -10
0 -14 14 -14 55 0 57 8 66 35 39z m-267 -150 c35 -4 52 -10 49 -17 -3 -7 -11
-10 -18 -8 -8 2 -57 8 -109 14 -52 5 -99 13 -105 19 -10 9 31 8 183 -8z m-42
-40 l90 -7 2 -44 c1 -27 -3 -46 -11 -48 -22 -9 -268 12 -280 24 -8 8 22 11
114 12 78 0 117 4 104 9 -11 5 -62 9 -112 9 -55 1 -93 5 -93 11 0 6 14 10 31
10 27 0 30 2 19 15 -15 18 -3 19 136 9z m-46 -297 c0 -7 -5 -18 -12 -25 -23
-23 12 -41 86 -44 l69 -2 38 -49 c22 -27 42 -60 45 -74 6 -24 10 -25 54 -19
53 7 71 -6 91 -62 12 -36 21 -39 39 -17 7 8 23 15 36 15 13 0 28 8 34 18 9 14
10 10 6 -19 -2 -20 1 -42 6 -47 13 -13 1 -19 -54 -24 -33 -3 -38 -1 -38 16 0
27 -14 10 -28 -34 -9 -28 -9 -32 1 -20 10 13 81 18 132 10 19 -4 -40 -18 -77
-19 -20 -1 -40 -6 -43 -12 -12 -18 2 -21 42 -9 21 7 50 10 64 8 23 -3 25 -6
17 -35 -12 -45 -39 -50 -95 -19 l-46 26 -22 -20 c-39 -37 -193 -73 -347 -83
-31 -2 -55 -1 -53 3 10 16 -93 8 -212 -15 -200 -39 -276 -32 -362 32 -35 27
-61 76 -61 116 0 36 38 80 63 73 13 -3 26 2 33 12 19 25 17 38 -3 20 -10 -9
-24 -13 -31 -11 -17 6 -62 -24 -62 -41 0 -7 -7 -19 -15 -26 -8 -7 -12 -16 -9
-21 6 -11 -29 -72 -65 -113 -14 -16 -19 -25 -11 -20 14 7 49 46 76 82 9 13 14
10 27 -18 22 -42 10 -63 -51 -94 -77 -38 -99 -40 -118 -12 -15 25 -11 52 6 41
17 -10 49 15 90 70 22 30 40 57 40 60 0 4 -24 -18 -53 -49 -29 -31 -58 -56
-65 -56 -26 0 -9 27 48 75 64 54 88 87 42 58 -15 -10 -33 -25 -39 -35 -7 -9
-29 -26 -48 -38 -28 -17 -34 -27 -29 -42 4 -14 2 -18 -5 -14 -16 10 -13 35 8
82 20 44 82 91 103 78 7 -4 10 -4 6 1 -14 15 84 71 158 91 42 11 109 46 133
69 2 2 -21 -5 -50 -15 -30 -11 -62 -20 -72 -20 -22 0 -88 -35 -187 -98 -98
-63 -137 -127 -116 -189 12 -36 -11 -27 -23 9 -10 28 -8 39 15 85 26 50 123
141 145 135 5 -1 9 3 9 8 0 16 206 104 221 94 5 -3 9 0 9 5 0 6 5 11 11 11 5
0 7 -4 4 -10 -3 -6 1 -7 9 -4 9 3 16 10 16 15 0 5 8 9 18 9 18 0 57 56 53 78
-1 6 3 12 9 12 6 0 8 -4 5 -10 -14 -22 10 -8 34 20 21 25 39 33 96 44 95 19
255 21 255 3z m-450 -82 c-14 -8 -32 -14 -40 -14 -8 0 -1 6 15 14 40 18 57 18
25 0z m-37 -52 c-7 -2 -19 -2 -25 0 -7 3 -2 5 12 5 14 0 19 -2 13 -5z m-68
-18 c-94 -43 -148 -63 -130 -49 31 25 118 64 140 63 16 0 13 -3 -10 -14z
m1115 -305 c0 -5 -4 -10 -10 -10 -5 0 -10 5 -10 10 0 6 5 10 10 10 6 0 10 -4
10 -10z m-177 -20 c4 -14 14 -20 34 -20 15 0 34 -4 42 -9 25 -16 -23 -31 -98
-31 -58 0 -71 3 -71 16 0 11 6 14 21 9 16 -5 20 -3 16 6 -5 16 20 49 38 49 7
0 15 -9 18 -20z m167 -16 c0 -8 -5 -12 -10 -9 -6 4 -8 11 -5 16 9 14 15 11 15
-7z m-1470 -30 c0 -18 6 -28 20 -31 16 -4 18 -8 9 -19 -9 -11 -7 -14 7 -14 15
0 16 -2 5 -9 -25 -16 -76 53 -64 87 8 22 23 13 23 -14z m1447 10 c-3 -3 -12
-4 -19 -1 -8 3 -5 6 6 6 11 1 17 -2 13 -5z m-1097 -59 c35 -18 70 -28 95 -27
77 2 144 11 164 21 12 7 108 13 237 16 154 3 219 7 225 16 4 7 14 9 22 6 9 -3
17 -2 19 2 5 12 78 24 78 12 0 -5 -4 -13 -10 -16 -5 -3 -10 -15 -10 -25 0 -10
-5 -22 -12 -26 -8 -5 -9 2 -5 25 5 24 3 31 -6 28 -11 -3 -13 -7 -16 -43 -1
-11 -7 -13 -23 -8 -13 5 -52 7 -88 6 -36 -1 -71 2 -79 7 -8 5 -24 3 -41 -5
-25 -13 -69 -16 -180 -13 -65 2 -120 -6 -120 -17 0 -6 -9 -19 -21 -30 -21 -19
-21 -19 -46 11 -17 20 -23 23 -18 10 4 -11 9 -33 11 -50 l4 -30 -10 29 c-5 16
-14 33 -21 36 -6 4 -48 6 -93 3 -68 -4 -87 -1 -120 16 l-39 20 -27 -29 c-15
-16 -25 -33 -21 -37 3 -4 -10 4 -28 18 -19 14 -36 30 -38 35 -2 5 17 17 41 27
24 10 54 29 66 42 20 22 26 23 39 11 9 -7 41 -26 71 -41z m1040 5 c-25 -14
-47 -18 -80 -15 -30 4 -38 2 -25 -3 17 -8 14 -10 -18 -16 -48 -9 -77 0 -77 24
0 17 10 20 93 23 50 1 103 4 117 5 22 1 21 -1 -10 -18z m-1288 -82 c57 -57
171 -111 291 -139 61 -15 97 -28 97 -36 0 -16 -42 -17 -95 -1 -22 6 -44 12
-50 13 -87 11 -285 106 -285 136 0 6 -12 22 -26 36 -14 14 -19 23 -10 20 8 -3
18 -2 21 3 9 15 11 14 57 -32z m98 -34 c14 -3 58 -22 97 -41 40 -19 77 -32 82
-29 5 3 26 28 47 56 21 27 43 50 50 50 7 0 17 -14 23 -32 16 -44 -2 -98 -32
-98 -122 0 -365 102 -373 156 -1 8 16 -1 39 -21 23 -20 53 -38 67 -41z m106
40 c26 -11 51 -14 81 -9 24 3 43 3 43 -1 0 -18 -53 -74 -69 -74 -29 0 -141 53
-141 67 0 11 26 32 41 33 4 0 24 -7 45 -16z m-336 -25 c0 -6 -4 -7 -10 -4 -5
3 -10 11 -10 16 0 6 5 7 10 4 6 -3 10 -11 10 -16z m795 -3 c13 -9 36 -32 52
-53 25 -33 28 -44 28 -118 0 -75 -3 -86 -30 -125 -37 -54 -79 -80 -128 -80
-83 0 -136 64 -145 175 -4 55 -1 69 24 116 38 69 97 113 143 105 18 -3 44 -12
56 -20z m1055 -19 c0 -39 -110 -86 -210 -91 -73 -4 -90 0 -90 20 0 19 28 24
150 27 96 2 105 4 109 22 5 30 41 49 41 22z m-463 -48 c53 -33 68 -70 68 -174
0 -79 -3 -94 -25 -127 -96 -143 -250 -52 -250 148 0 61 13 99 43 133 43 46
109 54 164 20z m-1259 -133 c28 -14 52 -29 52 -31 0 -10 -117 54 -130 72 -14
17 -14 17 5 2 11 -9 44 -29 73 -43z m95 -43 c-7 -2 -19 -2 -25 0 -7 3 -2 5 12
5 14 0 19 -2 13 -5z m47 -13 c0 -5 -2 -10 -4 -10 -3 0 -8 5 -11 10 -3 6 -1 10
4 10 6 0 11 -4 11 -10z m325 -377 c11 -73 38 -127 91 -177 98 -94 290 -142
479 -118 107 13 170 39 265 106 58 41 65 44 68 26 4 -24 -58 -93 -114 -126
-23 -13 -74 -36 -115 -51 -65 -24 -88 -27 -199 -28 -104 0 -138 4 -200 23
-190 60 -303 155 -325 273 -7 35 18 119 35 119 5 0 12 -21 15 -47z"/>
<path d="M1805 3090 c-13 -6 -15 -9 -5 -9 8 0 22 4 30 9 18 12 2 12 -25 0z"/>
<path d="M1720 3039 c0 -5 5 -7 10 -4 6 3 10 8 10 11 0 2 -4 4 -10 4 -5 0 -10
-5 -10 -11z"/>
<path d="M1801 2954 c0 -11 3 -14 6 -6 3 7 2 16 -1 19 -3 4 -6 -2 -5 -13z"/>
<path d="M1814 2903 c8 -16 29 -41 47 -58 l33 -30 -31 37 c-17 20 -34 46 -38
57 -3 12 -11 21 -16 21 -5 0 -3 -12 5 -27z"/>
<path d="M1958 2639 c-27 -25 -27 -39 -2 -39 16 0 48 50 37 59 -4 4 -20 -5
-35 -20z"/>
<path d="M2194 2589 c-14 -16 -19 -36 -19 -78 0 -82 10 -111 39 -111 60 0 103
143 56 190 -26 26 -52 25 -76 -1z"/>
<path d="M2782 2547 c-17 -20 -31 -96 -25 -136 9 -57 31 -84 62 -76 38 10 50
23 57 62 8 41 -8 100 -37 137 -22 29 -41 33 -57 13z"/>
</g>
</svg>
