<?xml version="1.0" standalone="no"?>
<!DOCTYPE svg PUBLIC "-//W3C//DTD SVG 20010904//EN"
 "http://www.w3.org/TR/2001/REC-SVG-20010904/DTD/svg10.dtd">
<svg version="1.0" xmlns="http://www.w3.org/2000/svg"
 width="700.000000pt" height="700.000000pt" viewBox="0 0 700.000000 700.000000"
 preserveAspectRatio="xMidYMid meet">
<metadata>
Created by potrace 1.14, written by Peter Selinger 2001-2017
</metadata>
<g transform="translate(0.000000,700.000000) scale(0.100000,-0.100000)"
fill="#000000" stroke="none">
<path d="M5299 6006 c-2 -2 -38 -7 -79 -10 -41 -3 -91 -9 -110 -12 -46 -7
-138 -23 -170 -29 -14 -3 -38 -8 -55 -10 -16 -3 -37 -8 -45 -10 -8 -2 -27 -7
-42 -10 -113 -22 -325 -78 -473 -125 -257 -82 -499 -172 -741 -276 -192 -82
-437 -205 -442 -220 -3 -11 69 -76 159 -144 18 -14 37 -30 43 -36 6 -6 23 -18
39 -28 15 -10 27 -22 27 -26 0 -6 -77 -76 -244 -220 -16 -14 -34 -30 -40 -35
-6 -6 -180 -157 -386 -335 -206 -178 -377 -327 -380 -330 -3 -3 -34 -30 -70
-60 -36 -30 -69 -60 -75 -66 -5 -6 -59 -53 -120 -105 -60 -51 -125 -108 -144
-125 l-34 -32 31 -16 c39 -20 32 -19 64 -7 31 12 884 18 895 7 4 -3 0 -12 -9
-19 -9 -6 -94 -136 -189 -287 -95 -151 -177 -276 -181 -278 -4 -2 -8 -8 -8
-12 0 -10 -269 -430 -637 -995 -69 -107 -148 -228 -328 -507 -5 -8 -17 -26
-26 -39 -9 -13 -63 -96 -119 -184 -125 -194 -158 -245 -292 -451 -101 -154
-142 -237 -103 -204 18 15 31 23 86 54 34 19 213 133 424 271 105 68 493 321
600 390 28 18 129 84 225 146 96 63 234 152 305 197 72 46 240 155 375 243
135 87 268 172 295 189 28 17 151 96 275 175 124 80 260 168 303 195 43 28 82
48 88 45 5 -4 7 -10 5 -14 -7 -11 -19 -321 -18 -471 0 -74 1 -218 2 -318 l1
-184 21 19 c11 10 84 90 161 178 77 88 158 180 181 205 22 25 66 75 96 110 30
35 60 68 65 74 9 10 121 138 194 221 14 17 62 73 106 125 44 52 85 100 90 106
6 6 30 35 55 64 25 29 50 58 55 64 6 6 30 36 55 66 43 52 83 100 105 124 6 6
32 37 59 69 27 31 57 57 67 57 11 0 56 -47 118 -124 56 -69 105 -127 110 -130
20 -13 40 9 72 77 18 40 47 104 64 142 18 39 45 97 60 130 26 57 46 104 50
115 1 3 12 28 24 55 84 187 171 428 256 705 37 123 105 401 120 490 3 19 10
58 15 85 9 48 11 62 25 170 4 28 8 61 11 75 21 137 21 558 -1 680 -2 14 -6 45
-9 70 -13 112 -36 195 -62 218 -14 12 -34 23 -45 23 -10 1 -22 2 -26 3 -80 20
-109 25 -158 32 -22 3 -47 8 -55 11 -16 6 -555 14 -561 9z"/>
</g>
</svg>
